<?xml version="1.0" encoding="UTF-8"?>
<svg id="Ebene_2" data-name="Ebene 2" xmlns="http://www.w3.org/2000/svg" viewBox="0 0 52.2 52.2">
  <defs>
    <style>
      .cls-1 {
        fill: #f8d38d;
        stroke: #fcfcfc;
        stroke-miterlimit: 10;
        stroke-width: 2px;
      }

      .cls-2 {
        fill: #fff;
      }
    </style>
  </defs>
  <g id="Ebene_10" data-name="Ebene 10">
    <g id="eight-Notes-inactive">
      <rect class="cls-1" x="1" y="1" width="50.2" height="50.2" rx="6.65" ry="6.65"/>
      <path class="cls-2" d="M27.05,8.36s10.15,6.72,11.09,9.71,0,5.92-1.07,7.52-2.94,3.07-2.8,2.4,2.4-2.59,1.87-4.54c-.8-2.94-7.21-5.39-7.21-5.39,0,0,.34,14.06.13,18.74-.13,2.98-.37,7.03-8.06,7.03-4.01,0-7.14-2.12-7.31-5.11-.19-3.39,4.02-6.46,7.76-6.33s6.01,1.6,6.01,1.6l-.4-25.64Z"/>
    </g>
  </g>
</svg>