<?xml version="1.0" encoding="UTF-8"?>
<svg id="Ebene_2" data-name="Ebene 2" xmlns="http://www.w3.org/2000/svg" viewBox="0 0 358.89 95.06">
  <defs>
    <style>
      .cls-1 {
        fill: #F0B048;
      }

      .cls-2 {
        fill: #F8C668;
      }

      .cls-3 {
        fill: #00ADB5;
      }

      .cls-4 {
        fill: #00ADB5;
      }

      .cls-5 {
        fill: none;
        stroke: #00ADB5;
        stroke-miterlimit: 10;
        stroke-width: 2px;
      }
    </style>
  </defs>
  <g id="Metronome_Circle">
    <g>
      <path class="cls-2" d="M7.95,37.92h17.11v6.66H0V1.2h7.95v36.72Z"/>
      <path class="cls-2" d="M39.02,4.83c0,.64-.13,1.24-.38,1.8-.26.56-.6,1.05-1.02,1.47-.42.42-.92.75-1.49,1s-1.18.38-1.83.38-1.23-.12-1.79-.38c-.56-.25-1.05-.58-1.46-1s-.74-.91-.99-1.47c-.25-.56-.37-1.16-.37-1.8s.12-1.28.37-1.86c.25-.58.58-1.08.99-1.5s.9-.75,1.46-1.01c.56-.25,1.16-.38,1.79-.38s1.26.13,1.83.38c.57.25,1.07.59,1.49,1.01.42.42.76.92,1.02,1.5s.38,1.2.38,1.86ZM37.92,13.8v30.78h-7.3V13.8h7.3Z"/>
      <path class="cls-2" d="M46.26,44.58V0h7.3v17.58c1.2-1.3,2.56-2.33,4.08-3.1s3.29-1.16,5.32-1.16c1.65,0,3.17.34,4.54,1.04,1.37.69,2.55,1.7,3.55,3.01.99,1.32,1.76,2.95,2.31,4.89.54,1.94.81,4.17.81,6.69,0,2.3-.31,4.43-.92,6.39-.61,1.96-1.48,3.66-2.62,5.1-1.13,1.44-2.5,2.56-4.11,3.38-1.61.81-3.4,1.21-5.39,1.21-.93,0-1.77-.09-2.54-.29-.77-.19-1.47-.45-2.1-.79-.63-.34-1.22-.75-1.76-1.25-.54-.49-1.06-1.04-1.55-1.63l-.33,2.07c-.12.52-.32.89-.61,1.11-.29.22-.68.33-1.17.33h-4.82ZM60.45,19.08c-1.52,0-2.81.33-3.89.98-1.07.65-2.07,1.56-3,2.75v13.8c.83,1.04,1.73,1.76,2.7,2.17s2.03.62,3.18.62,2.1-.21,2.99-.63c.89-.42,1.64-1.06,2.26-1.92.62-.86,1.1-1.94,1.43-3.25.33-1.31.5-2.85.5-4.63s-.14-3.33-.43-4.58c-.29-1.25-.69-2.26-1.23-3.04-.53-.78-1.18-1.35-1.94-1.71-.76-.36-1.62-.54-2.59-.54Z"/>
      <path class="cls-2" d="M79.87,44.58V13.8h4.29c.75,0,1.27.14,1.57.42.3.28.49.76.59,1.44l.44,3.72c1.08-1.9,2.35-3.4,3.81-4.5,1.46-1.1,3.09-1.65,4.91-1.65,1.5,0,2.74.35,3.72,1.05l-.94,5.55c-.06.36-.19.62-.38.77-.2.15-.46.22-.8.22-.29,0-.7-.07-1.21-.21s-1.19-.21-2.04-.21c-1.52,0-2.82.42-3.9,1.28-1.08.85-2,2.09-2.75,3.73v19.17h-7.3Z"/>
      <path class="cls-2" d="M116.55,13.32c1.91,0,3.67.31,5.28.93,1.61.62,2.99,1.53,4.15,2.71,1.16,1.19,2.07,2.65,2.72,4.38.65,1.73.98,3.71.98,5.92,0,.56-.03,1.03-.07,1.39-.05.37-.14.66-.27.87s-.3.36-.52.45c-.22.09-.49.13-.83.13h-18.74c.22,3.16,1.05,5.48,2.51,6.96,1.46,1.48,3.39,2.22,5.79,2.22,1.18,0,2.2-.14,3.06-.42.86-.28,1.61-.59,2.25-.93.64-.34,1.2-.65,1.68-.93s.95-.42,1.4-.42c.3,0,.55.06.77.18.22.12.4.29.56.51l2.13,2.7c-.81.96-1.71,1.77-2.72,2.42-1,.65-2.06,1.17-3.15,1.56-1.09.39-2.21.67-3.34.83-1.13.16-2.23.24-3.29.24-2.11,0-4.07-.36-5.88-1.07-1.81-.71-3.39-1.76-4.73-3.15-1.34-1.39-2.39-3.11-3.16-5.16-.77-2.05-1.15-4.42-1.15-7.12,0-2.1.33-4.08,1-5.92s1.63-3.46,2.88-4.83c1.25-1.37,2.78-2.46,4.58-3.25s3.84-1.2,6.1-1.2ZM116.69,18.63c-2.13,0-3.79.61-5,1.83-1.2,1.22-1.97,2.95-2.31,5.19h13.71c0-.96-.13-1.87-.38-2.71-.26-.85-.65-1.59-1.18-2.24-.53-.64-1.2-1.14-2.01-1.51-.81-.37-1.76-.56-2.84-.56Z"/>
      <path class="cls-4" d="M71.84,78.58c.29.69.57,1.39.84,2.08.28-.72.56-1.43.86-2.13.29-.7.61-1.37.94-2.01l12.65-24.03c.16-.3.32-.54.49-.72.17-.18.35-.31.56-.39.21-.08.44-.13.69-.15.26-.02.56-.03.92-.03h6v43.38h-7.01v-28.02c0-.52.01-1.09.04-1.71s.07-1.25.13-1.89l-12.92,24.6c-.29.56-.68,1-1.15,1.3-.47.31-1.02.46-1.65.46h-1.09c-.63,0-1.18-.15-1.65-.46-.47-.31-.86-.75-1.15-1.3l-13.09-24.69c.08.66.13,1.31.16,1.94s.05,1.21.05,1.75v28.02h-7.01v-43.38h6c.36,0,.66.01.92.03.26.02.49.07.69.15.21.08.4.21.58.39.18.18.34.42.5.72l12.77,24.09c.33.64.64,1.31.93,2Z"/>
      <path class="cls-4" d="M116.55,63.32c1.91,0,3.67.31,5.28.93,1.61.62,2.99,1.53,4.15,2.71,1.16,1.19,2.07,2.65,2.72,4.38.65,1.73.98,3.71.98,5.92,0,.56-.03,1.03-.07,1.39-.05.37-.14.66-.27.87-.13.21-.3.36-.52.45-.22.09-.49.13-.83.13h-18.74c.22,3.16,1.05,5.48,2.51,6.96,1.46,1.48,3.39,2.22,5.79,2.22,1.18,0,2.2-.14,3.06-.42.86-.28,1.61-.59,2.25-.93.64-.34,1.2-.65,1.68-.93s.95-.42,1.4-.42c.29,0,.55.06.77.18s.4.29.56.51l2.13,2.7c-.81.96-1.71,1.77-2.72,2.42-1,.65-2.06,1.17-3.15,1.56-1.09.39-2.21.67-3.34.83s-2.23.24-3.29.24c-2.11,0-4.07-.36-5.88-1.07-1.81-.71-3.39-1.76-4.73-3.15-1.34-1.39-2.39-3.11-3.16-5.16-.77-2.05-1.15-4.42-1.15-7.12,0-2.1.33-4.08,1-5.92s1.63-3.46,2.88-4.83c1.25-1.37,2.78-2.46,4.58-3.25s3.84-1.2,6.1-1.2ZM116.69,68.63c-2.13,0-3.79.61-5,1.83-1.2,1.22-1.97,2.95-2.31,5.19h13.71c0-.96-.13-1.87-.38-2.71-.26-.85-.65-1.59-1.18-2.24-.53-.64-1.2-1.14-2.01-1.51s-1.76-.56-2.84-.56Z"/>
      <path class="cls-4" d="M145.57,95.06c-2.62,0-4.64-.75-6.06-2.27-1.42-1.51-2.13-3.59-2.13-6.25v-17.19h-3.08c-.39,0-.73-.13-1.02-.39-.29-.26-.43-.65-.43-1.17v-2.94l4.88-.81,1.54-8.4c.08-.4.26-.71.55-.93.28-.22.64-.33,1.08-.33h3.78v9.69h7.98v5.28h-7.98v16.68c0,.96.24,1.71.71,2.25.47.54,1.1.81,1.89.81.45,0,.83-.05,1.14-.16.3-.11.57-.23.8-.35.23-.12.43-.23.6-.34.18-.11.36-.17.53-.17.22,0,.39.06.53.17.14.11.29.28.44.5l2.19,3.6c-1.06.9-2.29,1.58-3.66,2.04-1.38.46-2.81.69-4.29.69Z"/>
      <path class="cls-4" d="M158.49,94.58v-30.78h4.29c.75,0,1.27.14,1.57.42s.49.76.59,1.44l.44,3.72c1.08-1.9,2.35-3.4,3.81-4.5,1.46-1.1,3.09-1.65,4.91-1.65,1.5,0,2.74.35,3.72,1.05l-.94,5.55c-.06.36-.19.62-.38.77-.2.15-.46.22-.8.22-.29,0-.7-.07-1.21-.21-.51-.14-1.19-.21-2.04-.21-1.52,0-2.82.42-3.9,1.28-1.08.85-2,2.09-2.75,3.73v19.17h-7.3Z"/>
      <path class="cls-4" d="M216.25,94.58v-30.78h4.46c.95,0,1.57.45,1.86,1.35l.5,2.43c.61-.64,1.26-1.22,1.94-1.74.68-.52,1.4-.97,2.16-1.35s1.57-.67,2.44-.87c.87-.2,1.81-.3,2.84-.3,1.65,0,3.12.29,4.4.86,1.28.57,2.35,1.37,3.21,2.4.86,1.03,1.51,2.26,1.95,3.69s.67,3,.67,4.72v19.59h-7.3v-19.59c0-1.88-.43-3.33-1.29-4.37-.86-1.03-2.14-1.54-3.86-1.54-1.26,0-2.44.29-3.55.87-1.1.58-2.15,1.37-3.13,2.37v22.26h-7.3Z"/>
      <path class="cls-4" d="M283.46,94.58v-30.78h4.46c.95,0,1.57.45,1.86,1.35l.47,2.28c.53-.6,1.09-1.15,1.67-1.65s1.2-.93,1.86-1.29,1.37-.64,2.13-.85,1.59-.32,2.5-.32c1.91,0,3.48.53,4.71,1.58s2.15,2.44,2.76,4.18c.47-1.02,1.06-1.89,1.77-2.62.71-.73,1.49-1.32,2.33-1.79.85-.46,1.75-.8,2.7-1.02.96-.22,1.92-.33,2.88-.33,1.67,0,3.16.26,4.46.78,1.3.52,2.4,1.28,3.28,2.28.89,1,1.56,2.22,2.03,3.66.46,1.44.69,3.09.69,4.95v19.59h-7.3v-19.59c0-1.96-.43-3.43-1.27-4.42s-2.09-1.49-3.72-1.49c-.75,0-1.44.13-2.08.39s-1.2.63-1.69,1.12-.86,1.1-1.14,1.84c-.28.74-.41,1.59-.41,2.55v19.59h-7.33v-19.59c0-2.06-.41-3.56-1.23-4.5-.82-.94-2.02-1.41-3.62-1.41-1.04,0-2.03.27-2.94.79-.92.53-1.77,1.26-2.56,2.18v22.53h-7.3Z"/>
      <path class="cls-4" d="M345.77,63.32c1.91,0,3.67.31,5.28.93,1.61.62,2.99,1.53,4.15,2.71,1.16,1.19,2.07,2.65,2.72,4.38.65,1.73.98,3.71.98,5.92,0,.56-.03,1.03-.07,1.39-.05.37-.14.66-.27.87-.13.21-.3.36-.52.45-.22.09-.49.13-.83.13h-18.74c.22,3.16,1.05,5.48,2.51,6.96,1.46,1.48,3.39,2.22,5.79,2.22,1.18,0,2.2-.14,3.06-.42.86-.28,1.61-.59,2.25-.93.64-.34,1.2-.65,1.68-.93s.95-.42,1.4-.42c.29,0,.55.06.77.18s.4.29.56.51l2.13,2.7c-.81.96-1.71,1.77-2.72,2.42-1,.65-2.06,1.17-3.15,1.56-1.09.39-2.21.67-3.34.83s-2.23.24-3.29.24c-2.11,0-4.07-.36-5.88-1.07-1.81-.71-3.39-1.76-4.73-3.15-1.34-1.39-2.39-3.11-3.16-5.16-.77-2.05-1.15-4.42-1.15-7.12,0-2.1.33-4.08,1-5.92s1.63-3.46,2.88-4.83c1.25-1.37,2.78-2.46,4.58-3.25s3.84-1.2,6.1-1.2ZM345.91,68.63c-2.13,0-3.79.61-5,1.83-1.2,1.22-1.97,2.95-2.31,5.19h13.71c0-.96-.13-1.87-.38-2.71-.26-.85-.65-1.59-1.18-2.24-.53-.64-1.2-1.14-2.01-1.51s-1.76-.56-2.84-.56Z"/>
    </g>
    <path class="cls-4" d="M263.39,63.05c2.27,0,4.32.37,6.16,1.11,1.84.74,3.41,1.79,4.71,3.15,1.3,1.36,2.31,3.02,3.02,4.98.71,1.96,1.06,4.15,1.06,6.57s-.36,4.64-1.06,6.6c-.71,1.96-1.71,3.63-3.02,5.01s-2.87,2.44-4.71,3.18c-1.84.74-3.9,1.11-6.16,1.11s-4.32-.37-6.18-1.11c-1.85-.74-3.43-1.8-4.74-3.18s-2.32-3.05-3.04-5.01-1.08-4.16-1.08-6.6.36-4.61,1.08-6.57,1.73-3.62,3.04-4.98c1.31-1.36,2.89-2.41,4.74-3.15,1.85-.74,3.91-1.11,6.18-1.11ZM263.39,89.06c2.52,0,4.39-.86,5.6-2.58,1.21-1.72,1.82-4.24,1.82-7.56s-.61-5.85-1.82-7.59c-1.21-1.74-3.08-2.61-5.6-2.61s-4.45.88-5.67,2.62-1.83,4.28-1.83,7.58.61,5.82,1.83,7.54c1.22,1.73,3.11,2.59,5.67,2.59Z"/>
    <g id="Analog">
      <g>
        <line class="cls-5" x1="201.09" y1="89.22" x2="165.25" y2="7.81"/>
        <path class="cls-1" d="M169.02,1.64c5.01,6.55-2.42,13.94-9,8.96-5.01-6.55,2.42-13.94,9-8.96Z"/>
      </g>
    </g>
    <circle class="cls-3" cx="201.71" cy="91.18" r="3.4"/>
  </g>
</svg>