<?xml version="1.0" encoding="UTF-8"?>
<svg width="24px" height="24px" viewBox="0 0 24 24" version="1.1" xmlns="http://www.w3.org/2000/svg">
    <g stroke="none" stroke-width="1" fill="none" fill-rule="evenodd">
        <path d="M12,2 C17.5228,2 22,6.47715 22,12 C22,17.5228 17.5228,22 12,22 C6.47715,22 2,17.5228 2,12 C2,6.47715 6.47715,2 12,2 Z M12,4 C7.58172,4 4,7.58172 4,12 C4,16.4183 7.58172,20 12,20 C16.4183,20 20,16.4183 20,12 C20,7.58172 16.4183,4 12,4 Z M12,15 C12.5523,15 13,15.4477 13,16 C13,16.5523 12.5523,17 12,17 C11.4477,17 11,16.5523 11,16 C11,15.4477 11.4477,15 12,15 Z M12,7 C13.6569,7 15,8.34315 15,10 C15,11.3072 14.1651,12.4171 12.9999,12.8292 L13,13 C13,13.5523 12.5523,14 12,14 C11.4477,14 11,13.5523 11,13 L11,12 C11,11.4477 11.4477,11 12,11 C12.5523,11 13,10.5523 13,10 C13,9.44772 12.5523,9 12,9 C11.4477,9 11,9.44772 11,10 C11,10.5523 10.5523,11 10,11 C9.44772,11 9,10.5523 9,10 C9,8.34315 10.3431,7 12,7 Z" fill="currentColor" fill-rule="nonzero"></path>
    </g>
</svg>