<?xml version="1.0" encoding="UTF-8"?>
<svg id="Ebene_2" data-name="Ebene 2" xmlns="http://www.w3.org/2000/svg" viewBox="0 0 57.46 57.15">
  <defs>
    <style>
      .cls-1, .cls-2, .cls-3 {
        fill: none;
      }

      .cls-4 {
        fill: #1d92a5;
        fill-rule: evenodd;
      }

      .cls-5 {
        fill: #ffd182;
      }

      .cls-2 {
        stroke: #ffd182;
      }

      .cls-2, .cls-3 {
        stroke-miterlimit: 10;
        stroke-width: 2px;
      }

      .cls-3 {
        stroke: #088296;
      }

      .cls-6 {
        fill: #ffca72;
      }
    </style>
  </defs>
  <g id="Icons">
    <g id="Multi">
      <rect class="cls-2" x="1" y="1" width="55.15" height="55.15" rx="6.65" ry="6.65"/>
      <circle class="cls-3" cx="15.59" cy="28.85" r="10.79"/>
      <ellipse class="cls-5" cx="15.44" cy="39.28" rx="1.55" ry="1.54"/>
      <ellipse class="cls-5" cx="4.61" cy="28.58" rx="1.48" ry="1.47"/>
      <ellipse class="cls-5" cx="26.29" cy="28.58" rx="1.48" ry="1.47"/>
      <ellipse class="cls-6" cx="15.44" cy="18.31" rx="1.55" ry="1.54"/>
      <g>
        <g>
          <path class="cls-1" d="M46.21,28.97c-.05,1.56-.79,3.04-2.05,3.99l6.81,8.95c3.92-2.94,6.38-7.78,6.48-12.68l-11.25-.26Z"/>
          <path class="cls-4" d="M49.68,35.95l-.87-.71c-.36.43-.74.84-1.17,1.2l.74.85c.48-.39.9-.86,1.3-1.33Z"/>
          <path class="cls-4" d="M51.39,33.09l-1.04-.43c-.09.26-.22.51-.35.76-.12.25-.25.5-.41.73l.96.59c.18-.26.32-.53.46-.81.14-.28.29-.55.39-.85Z"/>
          <path class="cls-4" d="M52.17,29.87l-1.12-.1c0,.28-.06.56-.11.83-.05.28-.09.55-.18.82l1.09.29c.1-.3.14-.6.2-.91.06-.31.11-.61.12-.92Z"/>
        </g>
        <g>
          <path class="cls-1" d="M44.16,32.97c-1.23.93-2.87,1.3-4.39.89l-2.75,10.91c4.75,1.25,10.05.14,13.95-2.85l-6.81-8.95Z"/>
          <path class="cls-4" d="M40.88,40.04l.02-1.12c-.56-.03-1.12-.05-1.67-.17l-.2,1.11c.61.13,1.23.16,1.85.19Z"/>
          <path class="cls-4" d="M44.18,39.6l-.32-1.08c-.54.14-1.08.27-1.64.32l.13,1.12c.62-.06,1.22-.21,1.83-.36Z"/>
          <path class="cls-4" d="M47.19,38.2l-.62-.94c-.47.29-.96.58-1.47.8l.45,1.03c.57-.24,1.11-.56,1.64-.89Z"/>
        </g>
        <g>
          <path class="cls-1" d="M39.77,33.86c-1.48-.37-2.81-1.46-3.43-2.88l-10.24,4.65c2,4.5,6.13,7.94,10.93,9.13l2.75-10.91Z"/>
          <path class="cls-4" d="M32.19,35.7l.89-.69-.49-.68-.42-.72-.99.53c.16.27.31.54.47.8l.54.76Z"/>
          <path class="cls-4" d="M34.6,38.01l.65-.92c-.45-.34-.89-.68-1.28-1.08l-.79.8c.44.44.93.83,1.42,1.2Z"/>
          <path class="cls-4" d="M37.57,39.49l.35-1.07c-.52-.19-1.05-.38-1.54-.66l-.52,1c.54.3,1.13.52,1.71.73Z"/>
        </g>
        <g>
          <path class="cls-1" d="M36.34,30.98c-.65-1.38-.61-3.12.1-4.47l-10.02-5.12c-1.12,2.19-1.74,4.64-1.8,7.08-.05,2.44.45,4.92,1.47,7.16l10.24-4.65Z"/>
          <polygon class="cls-4" points="30.17 26.21 31.26 26.47 31.49 25.67 31.79 24.88 30.76 24.44 30.42 25.31 30.17 26.21"/>
          <polygon class="cls-4" points="29.88 29.52 31 29.46 30.98 28.62 31.04 27.78 29.92 27.66 29.85 28.59 29.88 29.52"/>
          <polygon class="cls-4" points="30.56 32.77 31.61 32.38 31.35 31.58 31.16 30.77 30.05 30.98 30.27 31.89 30.56 32.77"/>
        </g>
        <g>
          <path class="cls-1" d="M36.44,26.51c.68-1.39,2.07-2.42,3.56-2.72l-2.24-11.02c-4.84.97-9.13,4.21-11.34,8.62l10.02,5.12Z"/>
          <path class="cls-4" d="M36.33,18.71l.47,1.02c.5-.25,1.04-.42,1.57-.58l-.3-1.09c-.59.18-1.19.37-1.75.65Z"/>
          <path class="cls-4" d="M33.56,20.55l.75.84c.41-.38.87-.7,1.33-1.02l-.6-.95c-.51.35-1.02.71-1.48,1.13Z"/>
          <path class="cls-4" d="M31.44,23.1l.96.58c.15-.23.3-.47.46-.7l.52-.66-.86-.73-.58.73c-.18.25-.34.52-.51.78Z"/>
        </g>
        <g>
          <path class="cls-1" d="M40,23.8c1.53-.34,3.16.11,4.35,1.09l7.22-8.63c-3.76-3.17-9-4.52-13.8-3.49l2.24,11.02Z"/>
          <path class="cls-4" d="M46.04,18.85l-.5,1.01c.51.24.97.55,1.43.87l.66-.91c-.51-.35-1.03-.7-1.59-.96Z"/>
          <path class="cls-4" d="M42.87,17.83l-.18,1.11c.55.08,1.09.24,1.63.4l.37-1.06c-.59-.18-1.19-.36-1.81-.45Z"/>
          <path class="cls-4" d="M39.55,17.77l.15,1.12c.55-.09,1.11-.09,1.67-.09l.04-1.12c-.62,0-1.24,0-1.86.1Z"/>
        </g>
        <g>
          <path class="cls-1" d="M44.35,24.89c1.21,1.01,1.88,2.52,1.86,4.08l11.25.26c.13-4.91-2.1-9.85-5.88-12.97l-7.22,8.63Z"/>
          <path class="cls-4" d="M51.98,26.53l-1.1.23c.08.27.1.55.14.83.04.28.07.55.07.83l1.12-.05c0-.31-.03-.62-.08-.93-.04-.31-.07-.62-.15-.92Z"/>
          <path class="cls-4" d="M50.8,23.41l-.98.55c.15.24.26.49.38.75.12.25.24.51.31.78l1.06-.38c-.09-.3-.22-.58-.35-.86-.13-.28-.25-.57-.42-.83Z"/>
          <path class="cls-4" d="M48.77,20.78l-.78.81c.21.19.4.39.58.6.18.21.38.41.53.65l.9-.67c-.17-.26-.39-.48-.59-.72-.2-.24-.41-.46-.64-.67Z"/>
        </g>
      </g>
      <ellipse class="cls-5" cx="40.89" cy="39.28" rx="1.55" ry="1.54"/>
      <ellipse class="cls-5" cx="30.05" cy="28.58" rx="1.48" ry="1.47"/>
      <ellipse class="cls-5" cx="51.73" cy="28.58" rx="1.48" ry="1.47"/>
      <ellipse class="cls-6" cx="40.89" cy="18.31" rx="1.55" ry="1.54"/>
    </g>
  </g>
</svg>