<?xml version="1.0" encoding="UTF-8"?>
<svg id="Ebene_2" data-name="Ebene 2" xmlns="http://www.w3.org/2000/svg" viewBox="0 0 57.15 57.15">
  <defs>
    <style>
      .cls-1, .cls-2, .cls-3 {
        fill: none;
      }

      .cls-4 {
        fill: var(--beat-first, #00A0A0);
        fill-rule: evenodd;
      }

      .cls-5 {
        fill: var(--beat-outer, #F8D38D);
      }

      .cls-2 {
        stroke: var(--beat-outer, #F8D38D);
      }

      .cls-2, .cls-3 {
        stroke-miterlimit: 10;
        stroke-width: 2px;
      }

      .cls-3 {
        stroke: var(--beat-first, #00A0A0);
      }

      .cls-6 {
        fill: var(--beat-inner, #FAE0AD);
      }
    </style>
  </defs>
  <g id="Icons">
    <g id="Poly">
      <circle class="cls-3" cx="28.42" cy="28.58" r="21.6"/>
      <ellipse class="cls-5" cx="28.12" cy="49.43" rx="3.09" ry="3.08"/>
      <ellipse class="cls-5" cx="6.43" cy="28.02" rx="2.95" ry="2.94"/>
      <ellipse class="cls-5" cx="49.83" cy="28.02" rx="2.95" ry="2.94"/>
      <ellipse class="cls-6" cx="28.12" cy="7.48" rx="3.09" ry="3.08"/>
      <rect class="cls-2" x="1" y="1" width="55.15" height="55.15" rx="6.65" ry="6.65"/>
      <g>
        <g>
          <path class="cls-1" d="M33.74,28.69c-.05,1.56-.79,3.04-2.05,3.99l6.81,8.95c3.92-2.94,6.38-7.78,6.48-12.68l-11.25-.26Z"/>
          <path class="cls-4" d="M37.22,35.67l-.87-.71c-.36.43-.74.84-1.17,1.2l.74.85c.48-.39.9-.86,1.3-1.33Z"/>
          <path class="cls-4" d="M38.92,32.82l-1.04-.43c-.09.26-.22.51-.35.76-.12.25-.25.5-.41.73l.96.59c.18-.26.32-.53.46-.81.14-.28.29-.55.39-.85Z"/>
          <path class="cls-4" d="M39.71,29.59l-1.12-.1c0,.28-.06.56-.11.83-.05.28-.09.55-.18.82l1.09.29c.1-.3.14-.6.2-.91.06-.31.11-.61.12-.92Z"/>
        </g>
        <g>
          <path class="cls-1" d="M31.7,32.69c-1.23.93-2.87,1.3-4.39.89l-2.75,10.91c4.75,1.25,10.05.14,13.95-2.85l-6.81-8.95Z"/>
          <path class="cls-4" d="M28.41,39.76l.02-1.12c-.56-.03-1.12-.05-1.67-.17l-.2,1.11c.61.13,1.23.16,1.85.19Z"/>
          <path class="cls-4" d="M31.71,39.32l-.32-1.08c-.54.14-1.08.27-1.64.32l.13,1.12c.62-.06,1.22-.21,1.83-.36Z"/>
          <path class="cls-4" d="M34.73,37.92l-.62-.94c-.47.29-.96.58-1.47.8l.45,1.03c.57-.24,1.11-.56,1.64-.89Z"/>
        </g>
        <g>
          <path class="cls-1" d="M27.31,33.58c-1.48-.37-2.81-1.46-3.43-2.88l-10.24,4.65c2,4.5,6.13,7.94,10.93,9.13l2.75-10.91Z"/>
          <path class="cls-4" d="M19.73,35.42l.89-.69-.49-.68-.42-.72-.99.53c.16.27.31.54.47.8l.54.76Z"/>
          <path class="cls-4" d="M22.13,37.73l.65-.92c-.45-.34-.89-.68-1.28-1.08l-.79.8c.44.44.93.83,1.42,1.2Z"/>
          <path class="cls-4" d="M25.1,39.21l.35-1.07c-.52-.19-1.05-.38-1.54-.66l-.52,1c.54.3,1.13.52,1.71.73Z"/>
        </g>
        <g>
          <path class="cls-1" d="M23.88,30.7c-.65-1.38-.61-3.12.1-4.47l-10.02-5.12c-1.12,2.19-1.74,4.64-1.8,7.08-.05,2.44.45,4.92,1.47,7.16l10.24-4.65Z"/>
          <polygon class="cls-4" points="17.71 25.93 18.8 26.19 19.03 25.39 19.33 24.61 18.3 24.16 17.96 25.03 17.71 25.93"/>
          <polygon class="cls-4" points="17.41 29.24 18.54 29.18 18.51 28.34 18.57 27.5 17.46 27.38 17.39 28.31 17.41 29.24"/>
          <polygon class="cls-4" points="18.1 32.49 19.15 32.1 18.89 31.3 18.7 30.49 17.59 30.7 17.8 31.61 18.1 32.49"/>
        </g>
        <g>
          <path class="cls-1" d="M23.98,26.23c.68-1.39,2.07-2.42,3.56-2.72l-2.24-11.02c-4.84.97-9.13,4.21-11.34,8.62l10.02,5.12Z"/>
          <path class="cls-4" d="M23.87,18.43l.47,1.02c.5-.25,1.04-.42,1.57-.58l-.3-1.09c-.59.18-1.19.37-1.75.65Z"/>
          <path class="cls-4" d="M21.09,20.27l.75.84c.41-.38.87-.7,1.33-1.02l-.6-.95c-.51.35-1.02.71-1.48,1.13Z"/>
          <path class="cls-4" d="M18.98,22.83l.96.58c.15-.23.3-.47.46-.7l.52-.66-.86-.73-.58.73c-.18.25-.34.52-.51.78Z"/>
        </g>
        <g>
          <path class="cls-1" d="M27.54,23.52c1.53-.34,3.16.11,4.35,1.09l7.22-8.63c-3.76-3.17-9-4.52-13.8-3.49l2.24,11.02Z"/>
          <path class="cls-4" d="M33.57,18.57l-.5,1.01c.51.24.97.55,1.43.87l.66-.91c-.51-.35-1.03-.7-1.59-.96Z"/>
          <path class="cls-4" d="M30.41,17.55l-.18,1.11c.55.08,1.09.24,1.63.4l.37-1.06c-.59-.18-1.19-.36-1.81-.45Z"/>
          <path class="cls-4" d="M27.09,17.5l.15,1.12c.55-.09,1.11-.09,1.67-.09l.04-1.12c-.62,0-1.24,0-1.86.1Z"/>
        </g>
        <g>
          <path class="cls-1" d="M31.88,24.61c1.21,1.01,1.88,2.52,1.86,4.08l11.25.26c.13-4.91-2.1-9.85-5.88-12.97l-7.22,8.63Z"/>
          <path class="cls-4" d="M39.51,26.25l-1.1.23c.08.27.1.55.14.83.04.28.07.55.07.83l1.12-.05c0-.31-.03-.62-.08-.93-.04-.31-.07-.62-.15-.92Z"/>
          <path class="cls-4" d="M38.34,23.13l-.98.55c.15.24.26.49.38.75.12.25.24.51.31.78l1.06-.38c-.09-.3-.22-.58-.35-.86-.13-.28-.25-.57-.42-.83Z"/>
          <path class="cls-4" d="M36.31,20.51l-.78.81c.21.19.4.39.58.6.18.21.38.41.53.65l.9-.67c-.17-.26-.39-.48-.59-.72-.2-.24-.41-.46-.64-.67Z"/>
        </g>
      </g>
      <ellipse class="cls-5" cx="28.42" cy="39" rx="1.55" ry="1.54"/>
      <ellipse class="cls-5" cx="17.59" cy="28.3" rx="1.48" ry="1.47"/>
      <ellipse class="cls-5" cx="39.27" cy="28.3" rx="1.48" ry="1.47"/>
      <ellipse class="cls-6" cx="28.42" cy="18.03" rx="1.55" ry="1.54"/>
    </g>
  </g>
</svg>